<?xml version="1.0" encoding="UTF-8" standalone="no"?>
<!DOCTYPE svg PUBLIC "-//W3C//DTD SVG 1.1//EN"
 "http://www.w3.org/Graphics/SVG/1.1/DTD/svg11.dtd">
<!-- Generated by graphviz version 9.0.0 (20230911.1827)
 -->
<!-- Pages: 1 -->
<svg width="227pt" height="155pt"
 viewBox="0.00 0.00 226.75 154.50" xmlns="http://www.w3.org/2000/svg" xmlns:xlink="http://www.w3.org/1999/xlink">
<g id="graph0" class="graph" transform="scale(1 1) rotate(0) translate(4 150.5)">
<polygon fill="white" stroke="none" points="-4,4 -4,-150.5 222.75,-150.5 222.75,4 -4,4"/>
<!-- User -->
<g id="node1" class="node">
<title>User</title>
<polygon fill="none" stroke="black" points="8,-99.38 8,-128.88 59.25,-128.88 59.25,-99.38 8,-99.38"/>
<text text-anchor="start" x="13" y="-109.67" font-family="Helvetica,sans-Serif" font-weight="bold" font-size="16.00">User</text>
<polygon fill="none" stroke="black" points="8,-72.12 8,-99.38 59.25,-99.38 59.25,-72.12 8,-72.12"/>
<text text-anchor="start" x="13" y="-81.08" font-family="Helvetica,sans-Serif" font-size="14.00">id</text>
<polygon fill="none" stroke="black" points="8,-44.88 8,-72.12 59.25,-72.12 59.25,-44.88 8,-44.88"/>
<text text-anchor="start" x="13" y="-53.83" font-family="Helvetica,sans-Serif" font-size="14.00">name</text>
<polygon fill="none" stroke="black" points="8,-17.62 8,-44.88 59.25,-44.88 59.25,-17.62 8,-17.62"/>
<text text-anchor="start" x="13" y="-26.57" font-family="Helvetica,sans-Serif" font-size="14.00">email</text>
</g>
<!-- Post -->
<g id="node2" class="node">
<title>Post</title>
<polygon fill="none" stroke="black" points="148.25,-113 148.25,-142.5 210.75,-142.5 210.75,-113 148.25,-113"/>
<text text-anchor="start" x="159.25" y="-123.3" font-family="Helvetica,sans-Serif" font-weight="bold" font-size="16.00">Post</text>
<polygon fill="none" stroke="black" points="148.25,-85.75 148.25,-113 210.75,-113 210.75,-85.75 148.25,-85.75"/>
<text text-anchor="start" x="153.25" y="-94.7" font-family="Helvetica,sans-Serif" font-size="14.00">id</text>
<polygon fill="none" stroke="black" points="148.25,-58.5 148.25,-85.75 210.75,-85.75 210.75,-58.5 148.25,-58.5"/>
<text text-anchor="start" x="153.25" y="-67.45" font-family="Helvetica,sans-Serif" font-size="14.00">title</text>
<polygon fill="none" stroke="black" points="148.25,-31.25 148.25,-58.5 210.75,-58.5 210.75,-31.25 148.25,-31.25"/>
<text text-anchor="start" x="153.25" y="-40.2" font-family="Helvetica,sans-Serif" font-size="14.00">content</text>
<polygon fill="none" stroke="black" points="148.25,-4 148.25,-31.25 210.75,-31.25 210.75,-4 148.25,-4"/>
<text text-anchor="start" x="153.25" y="-12.95" font-family="Helvetica,sans-Serif" font-size="14.00">user_id</text>
</g>
<!-- User&#45;&#45;Post -->
<g id="edge1" class="edge">
<title>User&#45;&#45;Post</title>
<path fill="none" stroke="#7f7f7f" stroke-dasharray="5,2" d="M66.91,-73.25C88.7,-73.25 117.55,-73.25 140.46,-73.25"/>
<text text-anchor="start" x="110.46" y="-59.95" font-family="Times,serif" font-size="14.00">0..N</text>
<text text-anchor="start" x="66.91" y="-59.95" font-family="Times,serif" font-size="14.00">1</text>
</g>
</g>
</svg>
